<svg width="50" height="50" viewBox="0 0 50 50" fill="none" xmlns="http://www.w3.org/2000/svg">
<g id="material-symbols:ads-click">
<path id="Vector" d="M24.3751 37.5C21.0417 37.3264 18.2293 36.0417 15.9376 33.6458C13.6459 31.25 12.5001 28.3681 12.5001 25C12.5001 21.5278 13.7154 18.5764 16.1459 16.1458C18.5765 13.7153 21.5279 12.5 25.0001 12.5C28.3681 12.5 31.2501 13.6458 33.6459 15.9375C36.0418 18.2292 37.3265 21.0417 37.5001 24.375L33.1251 23.0729C32.6737 21.1979 31.7015 19.6618 30.2084 18.4646C28.7154 17.2674 26.9793 16.6681 25.0001 16.6667C22.7084 16.6667 20.7466 17.4826 19.1147 19.1146C17.4827 20.7465 16.6668 22.7083 16.6668 25C16.6668 26.9792 17.2661 28.7153 18.4647 30.2083C19.6633 31.7014 21.1994 32.6736 23.073 33.125L24.3751 37.5ZM26.8751 45.7292C26.5626 45.7986 26.2501 45.8333 25.9376 45.8333H25.0001C22.1181 45.8333 19.4098 45.2861 16.8751 44.1917C14.3404 43.0972 12.1355 41.6132 10.2605 39.7396C8.3855 37.866 6.90147 35.6611 5.80842 33.125C4.71536 30.5889 4.16814 27.8806 4.16675 25C4.16536 22.1194 4.71258 19.4111 5.80842 16.875C6.90425 14.3389 8.38828 12.134 10.2605 10.2604C12.1327 8.38681 14.3376 6.90278 16.8751 5.80834C19.4126 4.71389 22.1209 4.16667 25.0001 4.16667C27.8793 4.16667 30.5876 4.71389 33.1251 5.80834C35.6626 6.90278 37.8675 8.38681 39.7397 10.2604C41.6119 12.134 43.0966 14.3389 44.1938 16.875C45.2911 19.4111 45.8376 22.1194 45.8334 25V25.9375C45.8334 26.25 45.7987 26.5625 45.7293 26.875L41.6668 25.625V25C41.6668 20.3472 40.0522 16.4063 36.823 13.1771C33.5938 9.94792 29.6529 8.33334 25.0001 8.33334C20.3473 8.33334 16.4063 9.94792 13.1772 13.1771C9.948 16.4063 8.33342 20.3472 8.33342 25C8.33342 29.6528 9.948 33.5938 13.1772 36.8229C16.4063 40.0521 20.3473 41.6667 25.0001 41.6667H25.6251L26.8751 45.7292ZM42.7605 46.875L33.8543 37.9688L31.2501 45.8333L25.0001 25L45.8334 31.25L37.9688 33.8542L46.8751 42.7604L42.7605 46.875Z" fill="#E0E0E0"/>
</g>
</svg>
