<svg width="58" height="50" viewBox="0 0 58 50" fill="none" xmlns="http://www.w3.org/2000/svg">
<g id="formkit:email" clip-path="url(#clip0_136_448)">
<path id="Vector" d="M51.7857 46.4286H5.35714C2.39286 46.4286 0 44.0357 0 41.0714V8.92855C0 5.96427 2.39286 3.57141 5.35714 3.57141H51.7857C54.75 3.57141 57.1429 5.96427 57.1429 8.92855V41.0714C57.1429 44.0357 54.75 46.4286 51.7857 46.4286ZM5.35714 7.14284C4.35714 7.14284 3.57143 7.92855 3.57143 8.92855V41.0714C3.57143 42.0714 4.35714 42.8571 5.35714 42.8571H51.7857C52.7857 42.8571 53.5714 42.0714 53.5714 41.0714V8.92855C53.5714 7.92855 52.7857 7.14284 51.7857 7.14284H5.35714Z" fill="#E0E0E0"/>
<path id="Vector_2" d="M28.5714 32C26.0714 32 23.7856 31 22.0714 29.1786L3.32136 9.25002C2.64279 8.53574 2.67851 7.39288 3.39279 6.71431C4.10708 6.03574 5.24993 6.07145 5.92851 6.78574L24.6785 26.7143C26.7142 28.8929 30.4285 28.8929 32.4642 26.7143L51.2142 6.82145C51.8928 6.10717 53.0356 6.07145 53.7499 6.75002C54.4642 7.42859 54.4999 8.57145 53.8214 9.28574L35.0714 29.2143C33.3571 31.0357 31.0714 32.0357 28.5714 32.0357V32Z" fill="#E0E0E0"/>
</g>
<defs>
<clipPath id="clip0_136_448">
<rect width="57.1429" height="50" fill="white"/>
</clipPath>
</defs>
</svg>
