<svg width="50" height="50" viewBox="0 0 50 50" fill="none" xmlns="http://www.w3.org/2000/svg">
<g id="mingcute:code-fill" clip-path="url(#clip0_136_442)">
<g id="Group">
<path id="Vector" d="M30.4583 5.54582C30.8538 5.65646 31.2235 5.84394 31.5465 6.09756C31.8694 6.35117 32.1392 6.66594 32.3404 7.02388C32.5416 7.38182 32.6703 7.77591 32.7192 8.18361C32.768 8.59132 32.736 9.00465 32.625 9.39999L23.3938 42.2896C23.17 43.0877 22.6383 43.7643 21.9157 44.1704C21.1931 44.5765 20.3388 44.679 19.5406 44.4552C18.7425 44.2314 18.0659 43.6998 17.6598 42.9771C17.2537 42.2545 17.1512 41.4002 17.375 40.6021L26.6062 7.70832C26.7171 7.31307 26.9048 6.94354 27.1585 6.62083C27.4122 6.29812 27.727 6.02856 28.0849 5.82755C28.4428 5.62654 28.8368 5.49801 29.2444 5.44931C29.652 5.40062 30.0652 5.4327 30.4604 5.54374L30.4583 5.54582ZM15.75 13.9521C16.3352 14.538 16.6639 15.3323 16.6639 16.1604C16.6639 16.9885 16.3352 17.7828 15.75 18.3687L9.125 25L15.7542 31.6292C16.3401 32.2154 16.6692 33.0104 16.669 33.8393C16.6688 34.6681 16.3394 35.463 15.7531 36.0489C15.1669 36.6349 14.3719 36.964 13.543 36.9638C12.7141 36.9636 11.9193 36.6341 11.3333 36.0479L2.49375 27.2083C1.90854 26.6224 1.57983 25.8281 1.57983 25C1.57983 24.1719 1.90854 23.3776 2.49375 22.7917L11.3313 13.9521C11.6215 13.6617 11.966 13.4313 12.3453 13.2741C12.7246 13.117 13.1311 13.0361 13.5417 13.0361C13.9522 13.0361 14.3587 13.117 14.738 13.2741C15.1173 13.4313 15.4598 13.6617 15.75 13.9521ZM34.25 18.3687C33.943 18.0826 33.6967 17.7376 33.5259 17.3543C33.3551 16.971 33.2633 16.5572 33.2559 16.1376C33.2485 15.718 33.3257 15.3012 33.4828 14.9121C33.64 14.523 33.8739 14.1695 34.1707 13.8727C34.4674 13.576 34.8209 13.3421 35.21 13.1849C35.5991 13.0277 36.0159 12.9505 36.4355 12.9579C36.8551 12.9653 37.2689 13.0572 37.6522 13.228C38.0356 13.3988 38.3806 13.645 38.6667 13.9521L47.5062 22.7896C48.0921 23.3756 48.4212 24.1703 48.4212 24.9989C48.4212 25.8276 48.0921 26.6223 47.5062 27.2083L38.6688 36.0479C38.3786 36.3382 38.0341 36.5685 37.655 36.7256C37.2759 36.8828 36.8695 36.9637 36.4591 36.9638C36.0487 36.9639 35.6422 36.8832 35.263 36.7262C34.8838 36.5692 34.5392 36.3391 34.249 36.0489C33.9587 35.7588 33.7284 35.4143 33.5712 35.0352C33.4141 34.6561 33.3332 34.2497 33.3331 33.8393C33.333 33.4289 33.4137 33.0224 33.5707 32.6432C33.7277 32.264 33.9578 31.9194 34.2479 31.6292L40.8771 25L34.25 18.3687Z" fill="#E0E0E0"/>
</g>
</g>
<defs>
<clipPath id="clip0_136_442">
<rect width="50" height="50" fill="white"/>
</clipPath>
</defs>
</svg>
