<svg width="50" height="50" viewBox="0 0 50 50" fill="none" xmlns="http://www.w3.org/2000/svg">
<g id="mdi:code-block-html">
<path id="Vector" d="M11.646 7.10417L14.5835 10.0417L7.9585 16.6667L14.5835 23.2917L11.646 26.25L2.0835 16.6667L11.646 7.10417ZM23.771 7.10417L33.3335 16.6667L23.771 26.25L20.8335 23.2917L27.4585 16.6667L20.8335 10.0417L23.771 7.10417ZM45.8335 12.5V37.5C45.8335 39.8125 43.9793 41.6667 41.6668 41.6667H8.3335C7.22843 41.6667 6.16862 41.2277 5.38722 40.4463C4.60582 39.6649 4.16683 38.6051 4.16683 37.5V29.1667H8.3335V37.5H41.6668V12.5H35.4793V8.33334H41.6668C43.9793 8.33334 45.8335 10.1875 45.8335 12.5Z" fill="#E0E0E0"/>
</g>
</svg>
