<svg width="163" height="36" viewBox="0 0 163 36" fill="none" xmlns="http://www.w3.org/2000/svg">
<path d="M74.9135 21.6712V4.97002H68.916V0.330811H87.1404V4.97002H81.1429V21.6712H74.9135Z" fill="#FF6347"/>
<path d="M58.6691 22.0031C55.1346 22.0031 52.4286 21.1416 50.5509 19.4184C48.6954 17.6953 47.7676 14.9118 47.7676 11.0678C47.7676 8.41685 48.1873 6.28503 49.0267 4.67235C49.8661 3.03758 51.0921 1.85569 52.7047 1.12667C54.3394 0.375555 56.3275 0 58.6691 0C61.0106 0 62.9877 0.375555 64.6003 1.12667C66.2349 1.85569 67.472 3.03758 68.3114 4.67235C69.1508 6.28503 69.5706 8.41685 69.5706 11.0678C69.5706 14.9118 68.6317 17.6953 66.7541 19.4184C64.8764 21.1416 62.1814 22.0031 58.6691 22.0031ZM58.6691 16.7012C60.2596 16.7012 61.4082 16.2593 62.1151 15.3757C62.8441 14.4699 63.2086 13.034 63.2086 11.0678C63.2086 8.96914 62.8441 7.48901 62.1151 6.62745C61.4082 5.74379 60.2596 5.30196 58.6691 5.30196C57.0786 5.30196 55.9188 5.74379 55.1899 6.62745C54.483 7.48901 54.1295 8.96914 54.1295 11.0678C54.1295 13.034 54.483 14.4699 55.1899 15.3757C55.9188 16.2593 57.0786 16.7012 58.6691 16.7012Z" fill="#FF6347"/>
<path d="M27.5259 21.6712V0.330811H37.0688C39.2557 0.330811 41.1224 0.69532 42.6687 1.42434C44.215 2.13127 45.3968 3.28002 46.2141 4.87061C47.0315 6.43911 47.4401 8.52675 47.4401 11.1335C47.4401 14.8007 46.5455 17.4738 44.7562 19.1528C42.9669 20.8317 40.4044 21.6712 37.0688 21.6712H27.5259ZM33.7553 16.8994H36.2736C37.3118 16.8994 38.1844 16.7558 38.8913 16.4686C39.5981 16.1594 40.1394 15.596 40.5149 14.7786C40.8904 13.9392 41.0782 12.7241 41.0782 11.1335C41.0782 9.54296 40.9015 8.31688 40.548 7.45531C40.2167 6.57165 39.6975 5.96414 38.9907 5.63277C38.2838 5.2793 37.3781 5.10257 36.2736 5.10257H33.7553V16.8994Z" fill="#FF6347"/>
<path d="M148.652 21.6712V13.8508L140.965 0.330811H147.459L151.767 8.38316L156.074 0.330811H162.569L154.881 13.8508V21.6712H148.652Z" fill="#D1D1D1"/>
<path d="M127.45 21.6712V0.330811H143.62V5.10257H133.68V8.58198H142.394V13.42H133.68V16.8994H143.62V21.6712H127.45Z" fill="#D1D1D1"/>
<path d="M107.743 21.6712V0.330811H118.843C120.588 0.330811 122.013 0.651138 123.117 1.29179C124.244 1.93244 125.083 2.82715 125.636 3.97591C126.188 5.10257 126.464 6.41701 126.464 7.91923C126.464 9.35518 126.1 10.6254 125.371 11.73C124.664 12.8125 123.714 13.6409 122.521 14.2153C122.764 14.4141 122.974 14.6571 123.151 14.9443C123.327 15.2094 123.526 15.585 123.747 16.071L126.199 21.6712H119.704L117.451 16.5349C117.275 16.1373 117.054 15.8611 116.789 15.7065C116.546 15.5297 116.192 15.4414 115.728 15.4414H113.972V21.6712H107.743ZM113.972 10.6696H117.252C118.158 10.6696 118.854 10.4377 119.34 9.97374C119.848 9.48773 120.102 8.80289 120.102 7.91923C120.102 6.04146 119.219 5.10257 117.451 5.10257H113.972V10.6696Z" fill="#D1D1D1"/>
<path d="M98.4859 22.0031C94.6864 22.0031 91.7925 21.0753 89.8044 19.2196C87.8163 17.3418 86.8223 14.6687 86.8223 11.2004C86.8223 7.62156 87.8495 4.86013 89.9038 2.91608C91.9582 0.972026 94.9625 0 98.9166 0C100.242 0 101.435 0.0773215 102.495 0.231963C103.578 0.386602 104.594 0.618562 105.544 0.927843V6.26294C104.572 5.88738 103.567 5.63333 102.528 5.50078C101.49 5.36823 100.43 5.30196 99.3474 5.30196C97.293 5.30196 95.7467 5.76588 94.7084 6.69372C93.6923 7.62156 93.1842 9.12378 93.1842 11.2004C93.1842 13.1444 93.626 14.5472 94.5096 15.4088C95.4153 16.2704 96.7407 16.7012 98.4859 16.7012C99.0602 16.7012 99.6014 16.668 100.109 16.6018C100.618 16.5134 101.093 16.4029 101.534 16.2704V13.1555H97.293V9.31156H106.737V20.048C105.919 20.5561 104.826 21.009 103.456 21.4066C102.109 21.8043 100.452 22.0031 98.4859 22.0031Z" fill="#D1D1D1"/>
<path d="M157.455 35.8731V27.7434H158.149V35.3176H162.643V35.8731H157.455Z" fill="#FF6347"/>
<path d="M142.976 35.8731L146.057 27.7434H146.94L150.008 35.8731H149.301L148.405 33.4998H144.592L143.696 35.8731H142.976ZM144.744 32.9317H148.24L146.486 28.2989L144.744 32.9317Z" fill="#FF6347"/>
<path d="M133.605 35.8731V28.3115H130.803V27.7434H137.102V28.3115H134.3V35.8731H133.605Z" fill="#FF6347"/>
<path d="M122.912 35.8731V27.7434H123.607V35.8731H122.912Z" fill="#FF6347"/>
<path d="M112.602 35.9998C111.744 35.9998 111.037 35.8357 110.481 35.5075C109.934 35.1709 109.526 34.708 109.257 34.1189C108.996 33.5214 108.865 32.8271 108.865 32.036C108.865 31.1523 108.988 30.3823 109.232 29.7258C109.476 29.061 109.871 28.5434 110.418 28.1731C110.965 27.8028 111.689 27.6177 112.589 27.6177C113.052 27.6177 113.473 27.6471 113.852 27.706C114.239 27.765 114.592 27.8491 114.912 27.9585V28.5771C114.592 28.4677 114.239 28.3835 113.852 28.3246C113.473 28.2573 113.078 28.2236 112.665 28.2236C111.874 28.2236 111.251 28.3835 110.797 28.7033C110.342 29.0147 110.018 29.4565 109.825 30.0288C109.64 30.5927 109.547 31.2617 109.547 32.036C109.547 33.0964 109.791 33.9253 110.279 34.5228C110.776 35.1119 111.575 35.4065 112.678 35.4065C113.073 35.4065 113.461 35.3728 113.839 35.3055C114.226 35.2298 114.559 35.1372 114.836 35.0278V32.137H112.526V31.5815H115.468V35.3813C115.24 35.5327 114.895 35.6758 114.433 35.8105C113.978 35.9367 113.368 35.9998 112.602 35.9998Z" fill="#FF6347"/>
<path d="M100.722 35.8731V27.7434H101.417V35.8731H100.722Z" fill="#FF6347"/>
<path d="M86.9407 35.8731V27.7434H89.9956C90.7783 27.7434 91.4095 27.8865 91.8892 28.1726C92.3689 28.4503 92.7181 28.8922 92.9369 29.4981C93.1642 30.104 93.2778 30.8951 93.2778 31.8714C93.2778 33.2515 93.0253 34.2657 92.5204 34.9137C92.0238 35.5533 91.1822 35.8731 89.9956 35.8731H86.9407ZM87.635 35.3176H89.8441C90.4585 35.3176 90.9676 35.2251 91.3716 35.0399C91.7756 34.8548 92.0785 34.5139 92.2805 34.0174C92.4825 33.5209 92.5835 32.8055 92.5835 31.8714C92.5835 30.9456 92.4909 30.2261 92.3057 29.7127C92.129 29.1909 91.8387 28.829 91.4347 28.6271C91.0392 28.4167 90.509 28.3115 89.8441 28.3115H87.635V35.3176Z" fill="#FF6347"/>
<path d="M21.1947 11.1014C21.1947 16.8616 16.4501 21.5312 10.5974 21.5312C4.7446 21.5312 0 16.8616 0 11.1014C0 5.3412 4.7446 0.671631 10.5974 0.671631C16.4501 0.671631 21.1947 5.3412 21.1947 11.1014Z" fill="#D1D1D1"/>
</svg>
