<svg width="52" height="52" viewBox="0 0 52 52" fill="none" xmlns="http://www.w3.org/2000/svg">
<g id="line-md:instagram">
<path id="Vector" d="M35.1667 14.0835C36.6855 14.0835 37.9167 12.8523 37.9167 11.3335C37.9167 9.81471 36.6855 8.5835 35.1667 8.5835C33.648 8.5835 32.4167 9.81471 32.4167 11.3335C32.4167 12.8523 33.648 14.0835 35.1667 14.0835Z" fill="white"/>
<g id="Group">
<path id="Vector_2" d="M36.8728 1C44.4888 1 50.67 7.18116 50.67 14.7972V36.8728C50.67 44.4888 44.4888 50.67 36.8728 50.67H14.7972C7.18116 50.67 1 44.4888 1 36.8728V14.7972C1 7.18116 7.18116 1 14.7972 1H25.835H36.8728Z" stroke="white" stroke-width="2" stroke-linecap="round" stroke-linejoin="round"/>
<path id="Vector_3" d="M25.8351 14.7974C31.9335 14.7974 36.8729 19.7368 36.8729 25.8351C36.8729 31.9335 31.9335 36.8729 25.8351 36.8729C19.7368 36.8729 14.7974 31.9335 14.7974 25.8351C14.7974 19.7368 19.7368 14.7974 25.8351 14.7974Z" stroke="white" stroke-width="2" stroke-linecap="round" stroke-linejoin="round"/>
</g>
</g>
</svg>
