<svg width="44" height="44" viewBox="0 0 44 44" fill="none" xmlns="http://www.w3.org/2000/svg">
<g id="ri:linkedin-fill">
<path id="Vector" d="M10.444 7.2241C10.4434 8.34384 9.99806 9.4175 9.20589 10.2089C8.41372 11.0003 7.33962 11.4445 6.21988 11.444C5.10014 11.4434 4.02648 10.9981 3.2351 10.2059C2.44372 9.41372 1.99944 8.33962 2 7.21988C2.00056 6.10014 2.44591 5.02648 3.23808 4.2351C4.03026 3.44372 5.10436 2.99944 6.2241 3C7.34384 3.00056 8.4175 3.44591 9.20888 4.23808C10.0003 5.03026 10.4445 6.10436 10.444 7.2241ZM10.5706 14.5704H2.12666V41H10.5706V14.5704ZM23.9121 14.5704H15.5104V41H23.8277V27.1308C23.8277 19.4045 33.8971 18.6868 33.8971 27.1308V41H42.2355V24.2598C42.2355 11.235 27.3319 11.7205 23.8277 18.1168L23.9121 14.5704Z" fill="white"/>
</g>
</svg>
