<svg width="687" height="687" viewBox="0 0 687 687" fill="none" xmlns="http://www.w3.org/2000/svg">
<g opacity="0.4" filter="url(#filter0_f_379_554)">
<circle cx="343.5" cy="343.5" r="223.5" fill="#FF6347"/>
</g>
<circle cx="343.5" cy="343.5" r="223.5" fill="#0E0E0E"/>
<g clip-path="url(#clip0_379_554)">
<path d="M354.087 273.409C355.542 273.816 356.903 274.506 358.091 275.439C359.28 276.372 360.272 277.531 361.013 278.848C361.753 280.165 362.227 281.615 362.407 283.116C362.586 284.616 362.469 286.137 362.06 287.592L328.089 408.626C327.266 411.563 325.309 414.052 322.65 415.547C319.991 417.042 316.847 417.419 313.91 416.595C310.973 415.772 308.483 413.815 306.988 411.156C305.494 408.497 305.117 405.353 305.94 402.416L339.911 281.367C340.319 279.912 341.01 278.552 341.943 277.365C342.877 276.177 344.035 275.185 345.353 274.445C346.67 273.706 348.12 273.233 349.62 273.053C351.12 272.874 352.64 272.992 354.095 273.401L354.087 273.409ZM299.96 304.344C302.114 306.5 303.323 309.423 303.323 312.47C303.323 315.518 302.114 318.441 299.96 320.597L275.58 345L299.976 369.395C302.132 371.553 303.343 374.478 303.342 377.529C303.341 380.579 302.129 383.504 299.972 385.66C297.814 387.816 294.889 389.028 291.838 389.027C288.788 389.026 285.863 387.814 283.707 385.656L251.177 353.127C249.024 350.97 247.814 348.047 247.814 345C247.814 341.952 249.024 339.03 251.177 336.873L283.699 304.344C284.767 303.275 286.035 302.427 287.431 301.849C288.827 301.27 290.323 300.973 291.834 300.973C293.344 300.973 294.84 301.27 296.236 301.849C297.632 302.427 298.892 303.275 299.96 304.344ZM368.04 320.597C366.91 319.544 366.004 318.275 365.376 316.864C364.747 315.453 364.409 313.93 364.382 312.386C364.355 310.842 364.639 309.308 365.217 307.876C365.795 306.445 366.656 305.144 367.748 304.052C368.84 302.96 370.141 302.099 371.573 301.52C373.005 300.942 374.539 300.658 376.083 300.685C377.627 300.712 379.15 301.05 380.56 301.679C381.971 302.308 383.241 303.214 384.294 304.344L416.823 336.866C418.979 339.022 420.19 341.947 420.19 344.996C420.19 348.046 418.979 350.97 416.823 353.127L384.301 385.656C383.233 386.725 381.966 387.572 380.571 388.15C379.175 388.729 377.68 389.026 376.17 389.027C374.659 389.027 373.164 388.73 371.768 388.152C370.373 387.575 369.105 386.728 368.036 385.66C366.968 384.592 366.121 383.325 365.542 381.93C364.964 380.534 364.666 379.039 364.666 377.529C364.666 376.018 364.963 374.523 365.54 373.127C366.118 371.732 366.965 370.464 368.033 369.395L392.428 345L368.04 320.597Z" fill="#FF6347"/>
</g>
<defs>
<filter id="filter0_f_379_554" x="0" y="0" width="687" height="687" filterUnits="userSpaceOnUse" color-interpolation-filters="sRGB">
<feFlood flood-opacity="0" result="BackgroundImageFix"/>
<feBlend mode="normal" in="SourceGraphic" in2="BackgroundImageFix" result="shape"/>
<feGaussianBlur stdDeviation="60" result="effect1_foregroundBlur_379_554"/>
</filter>
<clipPath id="clip0_379_554">
<rect width="184" height="184" fill="white" transform="translate(242 253)"/>
</clipPath>
</defs>
</svg>
