<svg width="24" height="24" viewBox="0 0 24 24" fill="none" xmlns="http://www.w3.org/2000/svg">
<g id="material-symbols:ac-unit-rounded">
<path id="Vector" d="M11 17.85L8.425 20.375C8.24167 20.5583 8.01267 20.65 7.738 20.65C7.46333 20.65 7.234 20.55 7.05 20.35C6.85 20.1667 6.75 19.9377 6.75 19.663C6.75 19.3883 6.85 19.1507 7.05 18.95L11 15V13H9L5.025 16.975C4.84167 17.1583 4.61267 17.25 4.338 17.25C4.06333 17.25 3.82567 17.15 3.625 16.95C3.44167 16.7667 3.35 16.5377 3.35 16.263C3.35 15.9883 3.44167 15.759 3.625 15.575L6.15 13H2.975C2.69167 13 2.45833 12.904 2.275 12.712C2.09167 12.52 2 12.2827 2 12C2 11.7173 2.096 11.48 2.288 11.288C2.48 11.096 2.71733 11 3 11H6.15L3.625 8.45C3.44167 8.26667 3.35 8.03767 3.35 7.763C3.35 7.48834 3.45 7.25067 3.65 7.05C3.83333 6.86667 4.06267 6.775 4.338 6.775C4.61333 6.775 4.85067 6.86667 5.05 7.05L9 11H11V9L7.025 5.05C6.84167 4.86667 6.75 4.63767 6.75 4.363C6.75 4.08834 6.85 3.85067 7.05 3.65C7.23333 3.46667 7.46267 3.375 7.738 3.375C8.01333 3.375 8.24233 3.46667 8.425 3.65L11 6.15V3C11 2.71667 11.096 2.47934 11.288 2.288C11.48 2.09667 11.7173 2.00067 12 2C12.2827 1.99934 12.5203 2.09534 12.713 2.288C12.9057 2.48067 13.0013 2.718 13 3V6.15L15.55 3.65C15.7333 3.46667 15.9627 3.375 16.238 3.375C16.5133 3.375 16.7507 3.46667 16.95 3.65C17.1333 3.85 17.225 4.08767 17.225 4.363C17.225 4.63834 17.1333 4.86734 16.95 5.05L13 9V11H15L18.95 7.05C19.1333 6.86667 19.3627 6.775 19.638 6.775C19.9133 6.775 20.1507 6.875 20.35 7.075C20.5333 7.25834 20.625 7.48734 20.625 7.762C20.625 8.03667 20.5333 8.266 20.35 8.45L17.85 11H21C21.2833 11 21.521 11.096 21.713 11.288C21.905 11.48 22.0007 11.7173 22 12C21.9993 12.2827 21.9033 12.5203 21.712 12.713C21.5207 12.9057 21.2833 13.0013 21 13H17.85L20.35 15.575C20.5333 15.7583 20.625 15.9877 20.625 16.263C20.625 16.5383 20.5333 16.7673 20.35 16.95C20.15 17.15 19.9127 17.25 19.638 17.25C19.3633 17.25 19.134 17.15 18.95 16.95L15 13H13V15L16.95 18.975C17.1333 19.1583 17.225 19.3877 17.225 19.663C17.225 19.9383 17.125 20.1757 16.925 20.375C16.7417 20.5583 16.5127 20.65 16.238 20.65C15.9633 20.65 15.734 20.5583 15.55 20.375L13 17.85V21.025C13 21.3083 12.904 21.5417 12.712 21.725C12.52 21.9083 12.2827 22 12 22C11.7173 22 11.48 21.904 11.288 21.712C11.096 21.52 11 21.2827 11 21V17.85Z" fill="white"/>
</g>
</svg>
